<svg xmlns="http://www.w3.org/2000/svg" width="481.823" height="481.823" style="enable-background:new 0 0 481.823 481.823" xml:space="preserve"><path d="M393.043 206.632c-9.813 0-19.641 1.697-29.208 5.044l-1.996.698-32.147-58.406v-25.365h38.517c7.402 0 13.424-6.022 13.424-13.425s-6.021-13.425-13.424-13.425H317.17c-7.401 0-13.424 6.022-13.424 13.425 0 1.084.148 2.211.44 3.349l.078.306v25.69H187.152l-9.644-21.476h27.897c7.009 0 12.71-5.703 12.71-12.714 0-7.01-5.701-12.713-12.71-12.713h-95.083c-7.011 0-12.714 5.703-12.714 12.713 0 7.011 5.703 12.714 12.714 12.714h39.322l8.49 19.248-38.149 70.096-2.007-.703c-9.557-3.351-19.38-5.049-29.198-5.049-48.953 0-88.78 39.829-88.78 88.784 0 48.953 39.827 88.779 88.78 88.779 43.436 0 80.206-31.113 87.434-73.98l.351-2.086h37.787l.724.688c5.776 5.48 13.335 8.5 21.284 8.5 17.056 0 30.932-13.876 30.932-30.932 0-2.946-.422-5.881-1.255-8.719l-.293-.998 51.233-93.079 22.596 41.054-1.652 1.312c-21.39 16.999-33.657 42.316-33.657 69.462 0 48.952 39.826 88.778 88.779 88.778s88.78-39.826 88.78-88.778c0-48.96-39.827-88.792-88.78-88.792zM129.84 247.173l2.349 2.219c8.702 8.213 14.881 18.647 17.867 30.177l.811 3.127h-40.578l19.551-35.523zm20.216 64.092c-7.254 27.965-32.451 47.496-61.274 47.496-34.934 0-63.354-28.42-63.354-63.354s28.421-63.353 63.354-63.353c5.101 0 10.373.686 15.672 2.039l3.128.8-29.93 54.403a5.562 5.562 0 0 1-.259.59c-.208.43-.363.803-.488 1.164-.175.463-.294.838-.382 1.197-.099.373-.169.73-.239 1.193a8.487 8.487 0 0 0-.131 1.293l-.005.132a6.432 6.432 0 0 1-.06.51l-.007.056.005.041c.02.144.036.285.045.426.028.504.081.981.145 1.453.054.344.116.729.214 1.114.094.378.208.751.354 1.153.149.45.293.811.464 1.174.156.348.338.66.549 1.023l.051.089c.215.377.407.674.611.944.229.313.479.619.814.994.263.285.534.586.834.86.31.28.638.541.97.803.319.239.675.503 1.029.706l.147.092c.101.067.201.143.302.219l.092.067c.202.064.4.148.598.255.341.166.741.334 1.105.459a11.429 11.429 0 0 0 2.377.625c.499.084.962.131 1.427.148.136-.008.346.021.565.05l62.087.009-.81 3.13zm62.486-44.608a30.9 30.9 0 0 0-6.574 13.998l-.383 2.039h-29.02l-.351-2.085c-3.637-21.568-15.111-40.981-32.312-54.661l-1.651-1.313 29.183-53.023 42.102 93.848-.994 1.197zm34.789-9.263-1.94-.592a30.912 30.912 0 0 0-6.979-1.268l-1.502-.098-38.342-85.497h96.908l-48.145 87.455zm145.712 101.367c-34.933 0-63.353-28.42-63.353-63.354 0-17.544 7.082-33.887 19.941-46.018l2.35-2.217 29.927 54.367a12.7 12.7 0 0 0 11.15 6.58c2.17 0 4.229-.529 6.122-1.575a12.591 12.591 0 0 0 6.076-7.593 12.673 12.673 0 0 0-1.077-9.688l-29.925-54.372 3.126-.8c5.291-1.354 10.564-2.04 15.678-2.04 34.934 0 63.354 28.42 63.354 63.353-.016 34.937-28.442 63.357-63.369 63.357z"/></svg>