<svg xmlns="http://www.w3.org/2000/svg" viewBox="0 0 417.885 417.885" style="enable-background:new 0 0 417.885 417.885" xml:space="preserve"><path style="stroke:#000;stroke-width:0;stroke-linecap:round;stroke-linejoin:round" d="M414.986 147.236c-.994-2.892-4.515-5.142-7.454-5.142h-38.183c-2.451 0-5.3 1.566-6.758 3.762-8.031-19.086-17.269-38.732-26.146-52.353a12.502 12.502 0 0 0-6.8-5.125c-1.617-.497-40.534-12.189-120.704-12.189-80.168 0-119.084 11.692-120.701 12.189a12.502 12.502 0 0 0-6.8 5.126c-8.877 13.623-18.115 33.269-26.146 52.353-1.457-2.196-4.307-3.763-6.758-3.763H10.353c-2.939 0-6.46 2.25-7.455 5.142-3.866 11.258-3.864 17.704.001 28.963.994 2.892 4.515 5.142 7.454 5.142h20.075c-9.345 9.35-15.142 22.246-15.142 36.478 0 .665.045 1.329.134 1.989l1.208 8.878a14.684 14.684 0 0 0 3.522 7.713v20.187h-1.166a5 5 0 0 0-5 5v59.819c0 11.189 9.103 20.291 20.291 20.291h40.573c11.188 0 20.291-9.103 20.291-20.291v-25.709h229.689v25.709c0 11.189 9.103 20.291 20.291 20.291h40.573c11.189 0 20.291-9.103 20.291-20.291v-59.819a5 5 0 0 0-5-5h-1.167v-18.224a14.72 14.72 0 0 0 5.606-9.677l1.207-8.878c.09-.659.134-1.324.134-1.989 0-14.232-5.797-27.128-15.142-36.478h15.908c2.939 0 6.46-2.25 7.454-5.142 3.87-11.258 3.868-17.704.003-28.962zm-315.1-36.059c11.789-2.815 47.803-9.975 109.056-9.975 61.277 0 97.297 7.165 109.058 9.974 8.35 13.875 17.125 33.463 24.604 51.831-19.639-3.19-58.322-6.829-132.619-6.829-78.96 0-117.08 4.171-134.996 7.544 7.539-18.568 16.434-38.482 24.897-52.545zM30.659 284.529v-13h35.5l3.749 13H30.659zm-.508-27.943V232.01l68.991 4.442 6.732 20.134H30.151zm264.636 25.931H125.182l-5.197-16.892h180l-5.198 16.892zm8.764-25.931H116.418l-5.061-15.135h197.254l-5.06 15.135zm-195.274-24.619-5.167-16.793h213.75l-5.167 16.793H108.277zm281.032 52.562H350.06l3.749-13h35.499v13zm.509-27.943h-75.723l6.732-20.134 68.991-4.442v24.576z"/></svg>