<svg xmlns="http://www.w3.org/2000/svg" viewBox="0 0 280.212 280.212" style="enable-background:new 0 0 280.212 280.212" xml:space="preserve"><path style="fill:#324d5b" d="M66.157 205.96c-.481-1.733-39.003-18.657-40.368-20.022-.14-.14-10.886-4.218-14.99-.123-4.122 4.104-.219 14.649.114 14.981 1.409 1.409 22.122 36.211 23.916 36.666 3.5.91 7.351.009 10.063-2.704 2.757-2.738 22.246-25.245 21.265-28.798zm28.187 48.497c-1.365-1.374-18.307-39.878-20.039-40.35-3.544-.971-26.069 18.491-28.825 21.247-2.722 2.713-3.605 6.563-2.704 10.063.464 1.794 35.275 22.49 36.692 23.899.324.333 10.877 4.218 14.99.114 4.104-4.096.026-14.842-.114-14.973z"/><path style="fill:#d1d5d7" d="M151.032 100.32c-.7-1.435-123.623-94.71-124.813-95.901-5.907-5.907-15.595-5.793-21.624.236s-6.143 15.717-.236 21.623c1.251 1.251 94.465 124.315 95.971 125.023 5.662 2.678 27.845-13.538 32.614-18.307 4.813-4.812 20.879-26.978 18.088-32.674zm124.822 153.577c-1.199-1.19-94.43-124.148-95.866-124.857-5.688-2.774-27.906 13.336-32.728 18.158-4.787 4.778-21.037 26.996-18.377 32.658.718 1.514 123.816 94.693 125.058 95.944 5.916 5.907 15.603 5.784 21.658-.263 6.048-6.037 6.162-15.733.255-21.64z"/><path style="fill:#324d5b" d="m164.246 143.356 106.253 135.621a15.842 15.842 0 0 0 5.102-3.43c6.047-6.038 6.161-15.743.254-21.65-.893-.884-52.75-69.202-79.817-104.389l-11.997-14.894-19.795 8.742zm-25.089-25.097 8.725-19.794-22.219-17.984C89.426 52.645 27.067 5.268 26.219 4.419 23.594 1.794 20.216.429 16.751.175h-2.328c-3.562.28-7.079 1.733-9.827 4.48A15.857 15.857 0 0 0 1.2 9.722l137.957 108.537z"/><path style="fill:#2f4856" d="M94.466 269.43c4.104-4.104.018-14.841-.123-14.973-1.304-1.313-16.784-36.412-19.681-39.983l-30.724 30.724 4.41 4.41c10.002 6.624 30.059 18.657 31.127 19.716.325.333 10.879 4.219 14.991.106z"/><path style="fill:#dee3e6" d="M246.985 33.279c14.841 14.859 3.912 49.88-10.562 64.371-14.474 14.492-202.959 179.095-217.791 164.237C3.79 247.036 168.21 58.35 182.693 43.859c14.473-14.483 49.459-25.43 64.292-10.58z"/><path style="fill:#e2574c" d="M171.815 108.449c5.706 5.714 3.973 16.714-3.877 24.572-7.858 7.858-18.858 9.6-24.581 3.877-5.706-5.714-3.964-16.705 3.877-24.572 7.867-7.85 18.867-9.591 24.581-3.877z"/><path style="fill:#324d5b" d="M246.985 33.279c-11.63-11.647-35.616-7.403-52.426 1.943l1.531.035a128.292 128.292 0 0 1 26.97 20.617 128.008 128.008 0 0 1 20.608 26.97l1.094 3.457c9.548-16.854 13.984-41.252 2.223-53.022z"/></svg>